<mxfile host="app.diagrams.net" modified="2022-04-25T02:54:52.952Z" agent="5.0 (Windows NT 10.0; Win64; x64) AppleWebKit/537.36 (KHTML, like Gecko) Chrome/100.0.4896.127 Safari/537.36" etag="Ed1Z9NkwZgwEyQH8CW3d" version="17.2.4" type="github">
  <diagram id="BboYApNE646gVig-U0zP" name="Page-1">
    <mxGraphModel dx="2249" dy="794" grid="1" gridSize="10" guides="1" tooltips="1" connect="1" arrows="1" fold="1" page="1" pageScale="1" pageWidth="827" pageHeight="1169" math="0" shadow="0">
      <root>
        <mxCell id="0" />
        <mxCell id="1" parent="0" />
        <mxCell id="bFDU_hwmJZyzEhPDxiUQ-1" value="" style="shape=image;html=1;verticalAlign=top;verticalLabelPosition=bottom;labelBackgroundColor=#ffffff;imageAspect=0;aspect=fixed;image=https://cdn2.iconfinder.com/data/icons/mobile-and-internet-business/285/qr_code-128.png;strokeWidth=2;fontSize=15;" vertex="1" parent="1">
          <mxGeometry x="326.75" y="400" width="88" height="88" as="geometry" />
        </mxCell>
        <mxCell id="bFDU_hwmJZyzEhPDxiUQ-2" value="" style="outlineConnect=0;dashed=0;verticalLabelPosition=bottom;verticalAlign=top;align=center;html=1;shape=mxgraph.aws3.user;fillColor=#D2D3D3;gradientColor=none;strokeWidth=2;fontSize=15;" vertex="1" parent="1">
          <mxGeometry x="159" y="190" width="45" height="63" as="geometry" />
        </mxCell>
        <mxCell id="bFDU_hwmJZyzEhPDxiUQ-3" value="" style="outlineConnect=0;dashed=0;verticalLabelPosition=bottom;verticalAlign=top;align=center;html=1;shape=mxgraph.aws3.user;fillColor=#D2D3D3;gradientColor=none;strokeWidth=2;fontSize=15;" vertex="1" parent="1">
          <mxGeometry x="155.75" y="390" width="45" height="63" as="geometry" />
        </mxCell>
        <mxCell id="bFDU_hwmJZyzEhPDxiUQ-4" value="" style="outlineConnect=0;dashed=0;verticalLabelPosition=bottom;verticalAlign=top;align=center;html=1;shape=mxgraph.aws3.user;fillColor=#D2D3D3;gradientColor=none;strokeWidth=2;fontSize=15;" vertex="1" parent="1">
          <mxGeometry x="320" y="190" width="45" height="63" as="geometry" />
        </mxCell>
        <mxCell id="bFDU_hwmJZyzEhPDxiUQ-8" value="" style="group;strokeWidth=2;fontSize=15;" vertex="1" connectable="0" parent="1">
          <mxGeometry x="380" y="200" width="106" height="91" as="geometry" />
        </mxCell>
        <mxCell id="bFDU_hwmJZyzEhPDxiUQ-5" value="" style="shape=image;html=1;verticalAlign=top;verticalLabelPosition=bottom;labelBackgroundColor=#ffffff;imageAspect=0;aspect=fixed;image=https://cdn1.iconfinder.com/data/icons/Futurosoft%20Icons%200.5.2/128x128/apps/kthememgr.png;strokeWidth=2;fontSize=15;" vertex="1" parent="bFDU_hwmJZyzEhPDxiUQ-8">
          <mxGeometry x="30" width="58" height="58" as="geometry" />
        </mxCell>
        <mxCell id="bFDU_hwmJZyzEhPDxiUQ-6" value="" style="shape=image;html=1;verticalAlign=top;verticalLabelPosition=bottom;labelBackgroundColor=#ffffff;imageAspect=0;aspect=fixed;image=https://cdn1.iconfinder.com/data/icons/Futurosoft%20Icons%200.5.2/128x128/apps/kthememgr.png;strokeWidth=2;fontSize=15;" vertex="1" parent="bFDU_hwmJZyzEhPDxiUQ-8">
          <mxGeometry y="33" width="58" height="58" as="geometry" />
        </mxCell>
        <mxCell id="bFDU_hwmJZyzEhPDxiUQ-7" value="" style="shape=image;html=1;verticalAlign=top;verticalLabelPosition=bottom;labelBackgroundColor=#ffffff;imageAspect=0;aspect=fixed;image=https://cdn1.iconfinder.com/data/icons/Futurosoft%20Icons%200.5.2/128x128/apps/kthememgr.png;strokeWidth=2;fontSize=15;" vertex="1" parent="bFDU_hwmJZyzEhPDxiUQ-8">
          <mxGeometry x="50" y="33" width="56" height="56" as="geometry" />
        </mxCell>
        <mxCell id="bFDU_hwmJZyzEhPDxiUQ-10" value="" style="group;strokeWidth=2;fontSize=15;" vertex="1" connectable="0" parent="1">
          <mxGeometry x="387.75" y="410" width="106" height="91" as="geometry" />
        </mxCell>
        <mxCell id="bFDU_hwmJZyzEhPDxiUQ-11" value="" style="shape=image;html=1;verticalAlign=top;verticalLabelPosition=bottom;labelBackgroundColor=#ffffff;imageAspect=0;aspect=fixed;image=https://cdn1.iconfinder.com/data/icons/Futurosoft%20Icons%200.5.2/128x128/apps/kthememgr.png;strokeWidth=2;fontSize=15;" vertex="1" parent="bFDU_hwmJZyzEhPDxiUQ-10">
          <mxGeometry x="30" width="58" height="58" as="geometry" />
        </mxCell>
        <mxCell id="bFDU_hwmJZyzEhPDxiUQ-12" value="" style="shape=image;html=1;verticalAlign=top;verticalLabelPosition=bottom;labelBackgroundColor=#ffffff;imageAspect=0;aspect=fixed;image=https://cdn1.iconfinder.com/data/icons/Futurosoft%20Icons%200.5.2/128x128/apps/kthememgr.png;strokeWidth=2;fontSize=15;" vertex="1" parent="bFDU_hwmJZyzEhPDxiUQ-10">
          <mxGeometry y="33" width="58" height="58" as="geometry" />
        </mxCell>
        <mxCell id="bFDU_hwmJZyzEhPDxiUQ-13" value="" style="shape=image;html=1;verticalAlign=top;verticalLabelPosition=bottom;labelBackgroundColor=#ffffff;imageAspect=0;aspect=fixed;image=https://cdn1.iconfinder.com/data/icons/Futurosoft%20Icons%200.5.2/128x128/apps/kthememgr.png;strokeWidth=2;fontSize=15;" vertex="1" parent="bFDU_hwmJZyzEhPDxiUQ-10">
          <mxGeometry x="50" y="33" width="56" height="56" as="geometry" />
        </mxCell>
        <mxCell id="bFDU_hwmJZyzEhPDxiUQ-15" value="庫房" style="rounded=0;whiteSpace=wrap;html=1;strokeWidth=2;fontSize=15;" vertex="1" parent="1">
          <mxGeometry x="263.75" y="560" width="230" height="20" as="geometry" />
        </mxCell>
        <mxCell id="bFDU_hwmJZyzEhPDxiUQ-16" value="E400" style="rounded=0;whiteSpace=wrap;html=1;strokeWidth=2;fontSize=15;" vertex="1" parent="1">
          <mxGeometry x="580" y="560" width="240" height="20" as="geometry" />
        </mxCell>
        <mxCell id="bFDU_hwmJZyzEhPDxiUQ-17" value="生管" style="rounded=0;whiteSpace=wrap;html=1;strokeWidth=2;fontSize=15;" vertex="1" parent="1">
          <mxGeometry x="-210" y="560" width="390" height="20" as="geometry" />
        </mxCell>
        <mxCell id="bFDU_hwmJZyzEhPDxiUQ-18" value="" style="outlineConnect=0;dashed=0;verticalLabelPosition=bottom;verticalAlign=top;align=center;html=1;shape=mxgraph.aws3.user;fillColor=#D2D3D3;gradientColor=none;strokeWidth=2;fontSize=15;" vertex="1" parent="1">
          <mxGeometry x="680" y="250.5" width="45" height="63" as="geometry" />
        </mxCell>
        <mxCell id="bFDU_hwmJZyzEhPDxiUQ-19" value="庫房點收與手動開報廢預定單,SAP產生Ship No" style="text;html=1;align=center;verticalAlign=middle;resizable=0;points=[];autosize=1;strokeColor=none;fillColor=none;strokeWidth=2;fontSize=15;" vertex="1" parent="1">
          <mxGeometry x="230" y="150" width="330" height="20" as="geometry" />
        </mxCell>
        <mxCell id="bFDU_hwmJZyzEhPDxiUQ-20" value="庫房刷實貨,SAP自動開預定單並取得Ship No" style="text;html=1;align=center;verticalAlign=middle;resizable=0;points=[];autosize=1;strokeColor=none;fillColor=none;strokeWidth=2;fontSize=15;" vertex="1" parent="1">
          <mxGeometry x="236.75" y="371.5" width="310" height="20" as="geometry" />
        </mxCell>
        <mxCell id="bFDU_hwmJZyzEhPDxiUQ-23" value="" style="shape=image;html=1;verticalAlign=top;verticalLabelPosition=bottom;labelBackgroundColor=#ffffff;imageAspect=0;aspect=fixed;image=https://cdn4.iconfinder.com/data/icons/meBaze-Freebies/128/recycle.png;strokeWidth=2;fontSize=15;" vertex="1" parent="1">
          <mxGeometry x="640" y="313.5" width="128" height="128" as="geometry" />
        </mxCell>
        <mxCell id="bFDU_hwmJZyzEhPDxiUQ-25" value="" style="sketch=0;pointerEvents=1;shadow=0;dashed=0;html=1;strokeColor=none;fillColor=#434445;aspect=fixed;labelPosition=center;verticalLabelPosition=bottom;verticalAlign=top;align=center;outlineConnect=0;shape=mxgraph.vvd.document;strokeWidth=2;fontSize=15;" vertex="1" parent="1">
          <mxGeometry x="-120" y="249.5" width="89.06" height="122" as="geometry" />
        </mxCell>
        <mxCell id="bFDU_hwmJZyzEhPDxiUQ-26" value="報廢清單" style="text;html=1;align=center;verticalAlign=middle;resizable=0;points=[];autosize=1;strokeColor=none;fillColor=none;strokeWidth=2;fontSize=15;" vertex="1" parent="1">
          <mxGeometry x="-130" y="380" width="80" height="20" as="geometry" />
        </mxCell>
        <mxCell id="bFDU_hwmJZyzEhPDxiUQ-27" value="&lt;font style=&quot;font-size: 25px;&quot;&gt;AS-IS&lt;/font&gt;" style="text;html=1;align=center;verticalAlign=middle;resizable=0;points=[];autosize=1;strokeColor=none;fillColor=none;strokeWidth=2;fontSize=25;" vertex="1" parent="1">
          <mxGeometry x="25" y="209.5" width="80" height="40" as="geometry" />
        </mxCell>
        <mxCell id="bFDU_hwmJZyzEhPDxiUQ-28" value="TO-BE" style="text;html=1;align=center;verticalAlign=middle;resizable=0;points=[];autosize=1;strokeColor=none;fillColor=none;strokeWidth=2;fontSize=25;" vertex="1" parent="1">
          <mxGeometry x="20" y="401.5" width="90" height="40" as="geometry" />
        </mxCell>
        <mxCell id="bFDU_hwmJZyzEhPDxiUQ-30" value="SAP" style="rounded=0;whiteSpace=wrap;html=1;strokeWidth=2;fontSize=15;" vertex="1" parent="1">
          <mxGeometry x="190" y="560" width="95" height="20" as="geometry" />
        </mxCell>
        <mxCell id="bFDU_hwmJZyzEhPDxiUQ-31" value="SAP" style="rounded=0;whiteSpace=wrap;html=1;strokeWidth=2;fontSize=15;" vertex="1" parent="1">
          <mxGeometry x="485" y="560" width="95" height="20" as="geometry" />
        </mxCell>
        <mxCell id="bFDU_hwmJZyzEhPDxiUQ-32" value="" style="shape=flexArrow;endArrow=classic;html=1;rounded=0;fontSize=25;" edge="1" parent="1">
          <mxGeometry width="50" height="50" relative="1" as="geometry">
            <mxPoint x="204" y="431" as="sourcePoint" />
            <mxPoint x="314" y="430" as="targetPoint" />
          </mxGeometry>
        </mxCell>
        <mxCell id="bFDU_hwmJZyzEhPDxiUQ-33" value="" style="shape=flexArrow;endArrow=classic;html=1;rounded=0;fontSize=25;" edge="1" parent="1">
          <mxGeometry width="50" height="50" relative="1" as="geometry">
            <mxPoint x="200.75" y="241" as="sourcePoint" />
            <mxPoint x="310.75" y="240" as="targetPoint" />
          </mxGeometry>
        </mxCell>
      </root>
    </mxGraphModel>
  </diagram>
</mxfile>
